<svg width="54" height="54" viewBox="0 0 54 54" fill="none" xmlns="http://www.w3.org/2000/svg">
<g clip-path="url(#clip0)">
<path d="M48.1315 4.69423H34.0441C33.3961 4.69423 32.8701 5.2202 32.8701 5.86822C32.8701 6.51624 33.3961 7.0422 34.0441 7.0422H48.1315C48.7795 7.0422 49.3055 6.51624 49.3055 5.86822C49.3055 5.2202 48.7795 4.69423 48.1315 4.69423Z" fill="white"/>
<path d="M48.9625 5.03937L44.2667 0.343533C43.8088 -0.114308 43.0645 -0.114308 42.6067 0.343533C42.1488 0.801374 42.1488 1.5457 42.6067 2.00354L46.4714 5.86822L42.6044 9.73521C42.1465 10.1931 42.1465 10.9374 42.6044 11.3952C42.8345 11.6229 43.135 11.738 43.4355 11.738C43.7361 11.738 44.0366 11.623 44.2667 11.3952L48.9625 6.69937C49.4204 6.24142 49.4204 5.49721 48.9625 5.03937Z" fill="white"/>
<path d="M17.6088 4.69423H3.5214C2.87338 4.69423 2.34741 5.2202 2.34741 5.86822C2.34741 6.51624 2.87338 7.0422 3.5214 7.0422H17.6088C18.2568 7.0422 18.7828 6.51624 18.7828 5.86822C18.7828 5.2202 18.2568 4.69423 17.6088 4.69423Z" fill="white"/>
<path d="M5.18111 5.86811L9.04579 2.00343C9.50363 1.54559 9.50363 0.801271 9.04579 0.34343C8.58795 -0.114411 7.84363 -0.114411 7.38579 0.34343L2.69006 5.03938C2.23222 5.49722 2.23222 6.24154 2.69006 6.69938L7.3859 11.3952C7.61603 11.6229 7.91649 11.7381 8.21706 11.7381C8.51762 11.7381 8.81808 11.623 9.0459 11.3929C9.50374 10.9351 9.50374 10.1907 9.0459 9.73291L5.18111 5.86811Z" fill="white"/>
<path d="M46.9573 23.4774C45.9923 23.4774 45.093 23.7709 44.3464 24.271C43.7031 22.4444 41.9586 21.1295 39.9136 21.1295C38.9486 21.1295 38.0493 21.423 37.3027 21.9231C36.6594 20.0965 34.9149 18.7816 32.8699 18.7816C32.0153 18.7816 31.2123 19.0118 30.522 19.4133V11.7379C30.522 9.14817 28.416 7.0421 25.8262 7.0421C23.2364 7.0421 21.1303 9.14817 21.1303 11.7379V31.6951L17.0497 28.6358C14.6314 26.8208 11.1894 27.0627 9.04577 29.204C7.67224 30.5775 7.67224 32.8104 9.04577 34.1839L25.7652 50.9057C27.7609 52.9013 30.4164 54.0002 33.2386 54.0002H38.7397C45.8586 54.0002 51.6531 48.2079 51.6531 41.0867V28.1732C51.6531 25.5834 49.5471 23.4774 46.9573 23.4774ZM49.3053 41.0866C49.3053 46.9118 44.5649 51.6522 38.7397 51.6522H33.2386C31.0409 51.6522 28.9771 50.7976 27.4252 49.2455L10.7058 32.5239C10.2479 32.0661 10.2479 31.3217 10.7058 30.8639C11.4336 30.1384 12.4056 29.7651 13.3824 29.7651C14.176 29.7651 14.9743 30.0116 15.6434 30.514L21.6001 34.982C21.957 35.2497 22.436 35.2897 22.8304 35.0924C23.2272 34.8929 23.4784 34.4867 23.4784 34.0429V11.7379C23.4784 10.4442 24.5302 9.39007 25.8263 9.39007C27.1223 9.39007 28.1742 10.4443 28.1742 11.7379V29.3472C28.1742 29.9952 28.7001 30.5212 29.3481 30.5212C29.9962 30.5212 30.5221 29.9952 30.5221 29.3472V23.4775C30.5221 22.1837 31.5739 21.1296 32.87 21.1296C34.166 21.1296 35.2179 22.1839 35.2179 23.4775V29.3472C35.2179 29.9952 35.7438 30.5212 36.3918 30.5212C37.0399 30.5212 37.5658 29.9952 37.5658 29.3472V25.8253C37.5658 24.5316 38.6177 23.4775 39.9137 23.4775C41.2097 23.4775 42.2616 24.5317 42.2616 25.8253V29.3472C42.2616 29.9952 42.7875 30.5212 43.4355 30.5212C44.0836 30.5212 44.6095 29.9952 44.6095 29.3472V28.1732C44.6095 26.8795 45.6614 25.8253 46.9574 25.8253C48.2534 25.8253 49.3053 26.8796 49.3053 28.1732V41.0866Z" fill="white"/>
</g>
<defs>
<clipPath id="clip0">
<rect width="54" height="54" fill="white"/>
</clipPath>
</defs>
</svg>
